<?xml version="1.0" encoding="UTF-8" standalone="no"?>
<!-- Created with Inkscape (http://www.inkscape.org/) -->

<svg
   version="1.1"
   id="svg3355"
   width="70"
   height="40"
   viewBox="0 0 1213.9961 717.20917"
   sodipodi:docname="Boat50b.svg"
   inkscape:version="1.2.2 (732a01da63, 2022-12-09, custom)"
   xmlns:inkscape="http://www.inkscape.org/namespaces/inkscape"
   xmlns:sodipodi="http://sodipodi.sourceforge.net/DTD/sodipodi-0.dtd"
   xmlns="http://www.w3.org/2000/svg"
   xmlns:svg="http://www.w3.org/2000/svg">
  <defs
     id="defs3359" />
  <sodipodi:namedview
     id="namedview3357"
     pagecolor="#ffffff"
     bordercolor="#000000"
     borderopacity="0.25"
     inkscape:showpageshadow="2"
     inkscape:pageopacity="0.0"
     inkscape:pagecheckerboard="0"
     inkscape:deskcolor="#d1d1d1"
     showgrid="false"
     inkscape:zoom="0.6251321"
     inkscape:cx="414.31243"
     inkscape:cy="375.92054"
     inkscape:window-width="1920"
     inkscape:window-height="1031"
     inkscape:window-x="0"
     inkscape:window-y="25"
     inkscape:window-maximized="1"
     inkscape:current-layer="layer3" />
  <g
     inkscape:groupmode="layer"
     id="layer3"
     inkscape:label="Layer 1">
    <path
       id="path3365"
       style="fill:#000000;stroke-width:1.33333"
       d="M 751.51482 28.124169 C 748.72856 28.104955 745.79522 28.94663 742.9992 30.651513 L 738.66717 33.294091 L 738.66717 68.647606 L 738.66717 103.99917 L 707.27264 103.99917 L 675.8781 103.99917 L 672.60662 107.27261 C 668.68047 111.19852 668.51126 113.96853 671.86248 119.46401 C 675.04812 124.68818 679.43492 125.30553 713.46599 125.32143 L 738.26678 125.33315 L 739.17498 141.3937 C 739.67417 150.22704 739.72854 158.02815 739.29607 158.72768 C 738.86359 159.42744 732.37076 159.99917 724.86834 159.99917 C 707.63609 159.99917 698.91763 162.19313 681.39178 170.94058 C 669.53836 176.85655 665.4335 179.84181 653.99529 190.85854 L 640.54217 203.81753 L 606.27068 204.77456 L 571.9992 205.73354 L 571.9992 183.86636 L 571.9992 161.99917 L 611.15349 162.43667 L 650.30974 162.87417 L 653.2824 159.10464 C 656.67881 154.79579 656.45638 147.59743 652.75506 141.94839 L 650.60467 138.66714 L 611.30193 138.66714 L 571.9992 138.66714 L 571.9992 109.45229 L 571.9992 80.23745 L 567.89764 76.784325 C 562.71015 72.419448 560.40627 72.44416 555.73943 76.915185 L 551.9992 80.499169 L 551.9992 109.38003 L 551.9992 138.26089 L 517.21599 139.00893 C 483.41263 139.73443 482.34206 139.83996 479.21599 142.77651 C 475.23615 146.51559 475.02336 152.38234 478.65154 158.33315 L 481.29412 162.66714 L 497.64764 162.71401 C 506.64153 162.73983 522.09943 162.88852 531.9992 163.04604 L 549.9992 163.33315 L 549.9992 184.66714 L 549.9992 205.99917 L 536.08318 206.38198 L 522.16717 206.76479 L 510.36639 219.04995 C 488.57486 241.73423 476.69227 259.2137 471.20037 276.66714 L 467.8449 287.33315 L 442.32342 303.21401 C 428.28697 311.94797 387.37133 337.06151 351.40154 359.02065 C 209.657 445.55524 192.9164 456.07168 139.33318 492.24526 C 91.001692 524.87365 68.859847 540.3183 60.936698 546.92886 C 57.419098 549.86348 52.989799 552.67937 51.092948 553.18667 C 48.55049 553.86665 46.977565 555.80565 45.108573 560.56362 C 43.714155 564.11358 42.745269 567.13817 42.954276 567.28433 C 43.163284 567.43049 89.042833 583.70104 144.9074 603.44058 L 246.48162 639.3312 L 257.1906 654.20034 C 283.70186 691.01283 306.69475 716.05654 330.75115 734.32143 L 343.4699 743.97768 L 420.73553 744.33315 C 463.23032 744.52858 642.33147 744.83364 818.72771 745.01089 L 1139.4562 745.33315 L 1149.1769 739.33901 C 1192.8433 712.41754 1228.1448 673.96615 1249.4933 630.06558 C 1253.7555 621.30157 1257.0936 613.98417 1256.9133 613.80386 C 1256.733 613.62356 1248.7143 616.13606 1239.0929 619.38784 C 1191.0353 635.63034 1130.4119 647.54249 1059.9992 654.5812 C 1036.4219 656.93807 947.07938 663.99917 940.83709 663.99917 C 938.89758 663.99917 938.66717 660.82531 938.66717 634.06362 L 938.66717 604.12612 L 944.9992 604.79604 C 957.27101 606.09456 1159.0611 621.33315 1163.9836 621.33315 C 1169.5888 621.33315 1175.9992 616.20449 1175.9992 611.72183 C 1175.9992 606.10097 1168.3456 597.03616 1145.2746 575.33315 C 1070.9941 505.45517 1038.7121 457.79309 1038.7121 417.99917 C 1038.7121 402.0876 1044.9108 382.84693 1054.5461 368.84292 C 1056.8129 365.54826 1058.6672 362.5108 1058.6672 362.09292 C 1058.6672 361.67506 1047.4674 361.33315 1033.7785 361.33315 C 1020.0897 361.33315 1009.2493 360.97175 1009.6906 360.53042 C 1010.132 360.08906 1019.4832 359.79768 1030.4699 359.88198 C 1050.3005 360.03411 1050.4639 360.01016 1053.0812 356.68276 C 1056.5719 352.24528 1055.7412 349.08465 1045.3527 327.33315 C 1040.7997 317.80005 1034.4523 303.86824 1031.2472 296.37417 C 1010.859 248.69723 1009.6627 220.21513 1026.8312 191.03628 C 1032.1614 181.9773 1049.3029 164.40889 1060.9543 156.06558 C 1065.5124 152.8016 1069.1126 150.01095 1068.9543 149.8644 C 1068.7961 149.71785 1041.9642 150.41695 1009.3332 151.41714 C 976.7001 152.41734 948.05028 153.25723 945.66717 153.28433 L 941.33318 153.33315 L 941.33318 136.66714 L 941.33318 119.99917 L 973.11834 119.99917 L 1004.9054 119.99917 L 1006.4523 116.60464 C 1008.9372 111.15089 1008.3138 106.09376 1004.7433 102.7394 C 1001.6053 99.791552 1000.4248 99.654569 972.26482 98.983544 L 943.04412 98.286278 L 942.19646 85.477685 C 941.72983 78.432199 941.34499 66.250892 941.34099 58.409325 C 941.33461 45.191615 941.11755 43.99954 938.37029 42.075341 C 934.45607 39.333615 928.96608 39.443488 925.48357 42.333153 C 922.82243 44.541468 922.65267 46.060236 922.33514 70.667138 L 921.9992 96.667138 L 892.19256 97.026513 C 863.20503 97.375837 862.31704 97.466307 859.90349 100.35854 C 856.76582 104.11902 856.68649 109.21541 859.66717 115.48354 L 861.9992 120.38979 L 891.66717 119.48159 L 921.33318 118.57339 L 921.33318 135.89175 L 921.33318 153.21206 L 916.9992 153.90347 C 914.61586 154.28383 901.51654 154.76458 887.88982 154.96987 L 863.11443 155.34292 L 857.88982 159.22964 C 848.9341 165.89562 827.52134 188.1617 818.96599 199.70229 C 804.04771 219.82703 792.30673 243.55472 786.13982 266.04409 C 782.40623 279.6606 781.65562 278.11355 784.74334 263.16518 C 790.60648 234.7794 809.2416 198.0447 833.52654 166.99917 L 840.04412 158.66714 L 799.3156 158.66714 L 758.58514 158.66714 L 758.95818 142.33315 L 759.33318 125.99917 L 791.27459 125.64175 C 821.89485 125.29844 823.34143 125.16467 826.27459 122.40933 C 830.07068 118.84287 830.16869 114.75424 826.56951 110.17886 L 823.80584 106.66714 L 793.23748 106.66714 L 762.66717 106.66714 L 762.66717 70.096825 L 762.66717 33.526513 L 759.15349 30.762841 C 756.94238 29.023451 754.3013 28.143383 751.51482 28.124169 z M 465.9992 295.52261 L 466.91131 304.76089 C 467.41247 309.84198 468.14785 315.65508 468.54607 317.6769 C 469.19723 320.98308 467.02504 323.65269 446.96795 344.20425 C 410.00612 382.07723 351.1381 433.64951 281.33318 489.31167 C 247.58926 516.21893 246.96845 516.61869 262.90545 501.173 C 279.7291 484.86782 298.94618 464.37809 337.2199 421.93472 C 374.93587 380.10974 423.51619 331.3256 447.9992 310.69253 L 465.9992 295.52261 z M 892.40154 297.56948 C 894.43632 297.58246 896.47138 297.63832 898.50506 297.73745 C 921.99854 298.88269 919.9992 296.85975 919.9992 319.4894 C 919.9992 336.93179 919.78924 338.65087 917.66717 338.49136 C 916.38384 338.39491 890.43214 337.24136 859.9992 335.9269 C 829.56626 334.61243 801.96704 333.33981 798.66717 333.10073 L 792.66717 332.66714 L 804.15545 324.99526 C 831.3465 306.83933 861.88022 297.37477 892.40154 297.56948 z M 941.25701 305.33315 C 944.59542 305.33315 973.08774 316.37301 1000.6672 328.35268 C 1017.5328 335.6792 1031.5842 341.89807 1031.8898 342.17104 C 1032.1953 342.44397 1028.293 342.57583 1023.2219 342.46597 C 1013.9105 342.26415 940.9509 339.03405 940.33318 338.79604 C 939.29083 338.39441 940.20357 305.33315 941.25701 305.33315 z M 689.33318 314.13003 C 707.79697 314.08902 717.51131 316.04228 731.66717 322.64175 L 739.9992 326.52651 L 739.9992 343.93081 L 739.9992 361.33315 L 729.66717 361.16128 C 715.18499 360.92116 628.22026 355.33902 627.52459 354.60464 C 625.16452 352.11322 611.9992 331.2648 611.9992 330.0187 C 611.9992 329.0922 621.18199 326.17482 634.33318 322.923 C 667.24156 314.78582 671.0871 314.17053 689.33318 314.13003 z M 470.28631 326.52065 L 473.2492 334.44253 L 476.21209 342.3644 L 454.38201 368.84878 C 431.50951 396.59705 408.37421 425.20267 399.33514 436.91128 C 358.11426 490.30601 342.54472 511.34475 320.08709 543.99917 C 306.38606 563.92106 298.81836 574.0981 304.30389 565.22573 C 305.47377 563.33341 314.05828 547.13325 323.38006 529.22573 C 332.70186 511.31821 343.63304 490.66648 347.67107 483.33315 C 372.60512 438.05211 404.40798 396.57209 457.36443 340.26089 L 470.28631 326.52065 z M 758.66717 338.54409 L 764.9992 343.37612 C 775.04712 351.04277 789.16105 363.23902 789.25115 364.33315 C 789.29647 364.88315 788.28253 365.21325 786.9992 365.06753 C 785.71587 364.92182 780.16713 364.6208 774.66717 364.39761 C 757.75151 363.71121 758.66717 364.50106 758.66717 350.57925 L 758.66717 338.54409 z M 534.49529 344.27065 C 540.83521 344.18931 546.74824 344.88098 548.15349 346.28628 C 548.86584 346.99862 549.27265 352.62508 549.05779 358.79018 C 548.59027 372.20546 550.5343 371.5113 523.33318 367.98159 C 513.06656 366.64935 503.30084 365.50853 501.63201 365.44643 C 498.73611 365.33866 498.68697 365.16065 500.54607 361.56558 C 503.93037 355.02108 512.6815 348.26488 520.8449 345.89175 C 524.37454 344.86565 529.56429 344.33392 534.49529 344.27065 z M 792.24334 344.73159 C 792.47574 344.54707 821.317 346.23327 856.33318 348.47768 L 919.9992 352.55776 L 919.9992 359.30776 L 919.9992 366.05581 L 894.9992 371.00112 C 864.38197 377.05708 854.17408 378.42301 833.08904 379.29018 C 824.05634 379.66173 803.61693 380.29234 787.66717 380.69058 L 758.66717 381.41323 L 758.66717 377.95034 C 758.66717 375.28313 759.20231 374.64262 760.9992 375.16323 C 762.28253 375.53506 771.13395 376.24276 780.66717 376.7355 C 797.05627 377.58259 798.13419 377.48249 800.46599 374.89761 C 802.88053 372.22101 802.81514 371.8782 797.37615 358.6144 C 794.32066 351.1632 792.01096 344.91611 792.24334 344.73159 z M 478.32146 346.77847 L 485.49529 358.38979 C 489.43997 364.77584 493.09032 371.0327 493.60857 372.29409 C 494.12683 373.55549 495.92683 374.88426 497.60857 375.24722 C 500.98645 375.97626 543.97636 381.33315 546.44842 381.33315 C 547.52521 381.33315 547.9992 385.41563 547.9992 394.66714 L 547.9992 407.99917 L 525.54803 407.99917 L 503.09685 407.99917 L 484.24529 426.09292 C 447.63395 461.22629 428.85882 487.88962 418.1242 520.00308 C 411.45303 539.96002 409.0431 556.50103 408.83904 583.72378 C 408.66804 606.53701 408.63501 606.79017 405.63201 607.54409 C 400.93775 608.72264 399.59996 612.46162 401.90154 617.96987 C 402.98096 620.55329 404.37869 622.66714 405.00701 622.66714 C 405.63535 622.66714 437.0162 626.56337 474.74139 631.32534 C 512.46639 636.0875 544.08253 639.98736 544.9992 639.99136 C 546.22088 639.99736 546.66717 643.55993 546.66717 653.33315 L 546.66717 666.66714 L 537.62615 666.66714 L 528.58318 666.66714 L 520.82537 658.82534 L 513.0656 650.9855 L 478.86639 650.09683 C 445.42717 649.2282 401.17763 646.95477 400.2824 646.05972 C 400.03496 645.81228 398.88441 631.59772 397.72576 614.47183 C 394.69876 569.73619 394.70556 497.79493 397.73748 475.99917 C 401.1032 451.8037 404.01334 438.00641 406.65154 433.74526 C 407.92678 431.68554 424.57622 411.27547 443.64764 388.38979 L 478.32146 346.77847 z M 571.9992 352.02261 L 580.72967 355.30776 C 591.05147 359.19291 612.14493 368.35395 627.9992 375.83511 C 635.23197 379.24796 638.12652 381.15469 635.9992 381.10659 C 633.35482 381.04679 573.61551 373.85351 572.33318 373.44058 C 572.14985 373.38154 571.9992 368.53913 571.9992 362.67886 L 571.9992 352.02261 z M 939.9992 354.66714 L 948.9992 354.77261 C 965.49943 354.96759 1004.7037 358.08817 1001.9992 358.99136 C 1000.5325 359.48116 986.50685 360.52122 970.82928 361.3019 C 955.15167 362.08257 941.80035 363.04367 941.16131 363.43862 C 940.52226 363.83358 939.9992 362.02122 939.9992 359.41128 L 939.9992 354.66714 z M 638.83709 366.67886 C 639.84284 366.6859 661.36729 368.18444 686.66717 370.00893 C 711.96699 371.83347 734.31652 373.32825 736.33318 373.32925 C 739.51766 373.33201 739.9992 373.85924 739.9992 377.33315 C 739.9992 380.55555 739.416 381.35788 736.9992 381.45815 C 735.3492 381.52659 717.49972 382.07634 697.33318 382.68081 C 677.16663 383.28526 659.16651 384.13415 657.33318 384.56753 C 653.40956 385.49507 652.11293 384.53653 643.48943 374.33315 C 639.92573 370.11655 637.83135 366.67186 638.83709 366.67886 z M 852.70818 380.09097 C 852.83124 380.08954 852.95594 380.08969 853.07928 380.09292 C 856.28303 380.17659 856.3803 380.30995 853.9992 381.33315 C 850.2949 382.92494 847.68339 382.92494 848.66717 381.33315 C 849.09207 380.64566 850.86238 380.11242 852.70818 380.09097 z M 573.29021 385.70229 C 580.81059 385.73311 634.68076 392.30292 634.63201 393.29995 C 634.61318 393.68483 628.76311 396.85048 621.63201 400.33511 L 621.63201 400.33706 L 608.66717 406.673 L 589.49139 406.66909 L 570.3156 406.66714 L 570.96014 396.6437 C 571.31386 391.13085 571.97711 386.24593 572.43474 385.78823 C 572.4944 385.72858 572.78885 385.70024 573.29021 385.70229 z M 190.80779 495.27847 C 209.82614 494.99874 221.33318 501.18918 221.33318 512.43276 C 221.33318 525.30997 204.18286 548.10368 184.4406 561.46597 C 179.18347 565.02408 171.1942 571.00583 166.6867 574.75698 C 162.17895 578.50836 158.08085 582.64105 157.57928 583.94253 C 156.75508 586.08117 152.04749 584.87326 108.66717 571.39175 C 82.267704 563.18746 59.859644 556.19808 58.872245 555.8605 C 57.853454 555.51218 65.349298 549.05232 76.204276 540.92495 C 107.40798 517.56188 143.87613 501.41544 176.48943 496.52261 C 181.62935 495.75147 186.41906 495.34302 190.80779 495.27847 z M 268.8156 536.55972 C 276.09173 536.62092 282.35657 537.55386 285.8781 539.40151 C 301.69072 547.69733 298.58985 569.30919 276.61053 604.00308 C 271.03646 612.80129 265.76961 619.95441 264.90545 619.89761 C 262.35472 619.72999 164.29843 588.74584 163.36834 587.81362 C 162.61151 587.05504 186.70414 567.54006 202.0324 556.49526 C 208.98499 551.48568 223.17874 545.43068 239.4074 540.55386 C 248.43207 537.84177 259.4608 536.48102 268.8156 536.55972 z M 950.85662 545.47768 C 964.47923 545.63468 992.83642 548.19861 1008.6164 550.85854 C 1029.1619 554.32202 1059.6477 562.11997 1083.009 569.88589 C 1100.4913 575.69807 1143.3877 591.45278 1152.4133 595.37808 L 1156.6672 597.22964 L 1149.3332 597.12222 C 1145.2999 597.06367 1099.3979 594.42594 1047.3332 591.26089 C 995.26714 588.09563 949.49946 585.46659 945.63006 585.41909 L 938.5949 585.33315 L 938.96404 565.66714 L 939.33318 545.99917 L 945.9992 545.56558 C 947.26433 545.48307 948.91051 545.45526 950.85662 545.47768 z M 919.9992 546.63589 L 919.9992 565.31753 C 919.9992 583.8563 919.97602 583.99895 916.9992 583.81948 C 915.3492 583.72002 897.49955 582.56797 877.33318 581.26089 C 857.16681 579.95381 839.46586 578.83606 837.9992 578.77456 C 836.35224 578.70557 833.86899 576.34462 831.50506 572.60268 C 829.39979 569.27052 827.90109 566.3353 828.17303 566.07925 C 829.16617 565.14401 847.75367 559.98918 863.9992 556.1437 C 878.284 552.7623 893.44646 550.13145 914.9992 547.29409 L 919.9992 546.63589 z M 645.04021 550.66714 C 676.27301 550.66714 709.50949 554.90662 734.33318 562.05776 L 741.33318 564.07534 L 741.33318 588.70425 L 741.33318 613.33315 L 731.66717 613.15933 C 711.43789 612.79496 640.59499 607.61205 639.05584 606.38393 C 635.14957 603.26725 621.37805 561.76101 621.34295 552.99917 C 621.33441 550.86409 623.34854 550.66714 645.04021 550.66714 z M 351.75115 565.37222 C 369.02617 565.21278 381.59031 577.9455 389.1906 603.50503 C 391.8801 612.54936 395.97459 635.92934 395.99139 642.33315 C 395.99841 645.0083 395.38614 645.31054 390.33318 645.12026 C 363.41036 644.10644 272.66119 625.31915 271.02849 620.42104 C 270.71537 619.48165 271.49537 619.13204 273.01873 619.53042 C 274.82049 620.00159 276.4768 618.75762 278.92498 615.09292 C 284.94003 606.08896 298.54143 592.29369 309.7531 583.82534 C 325.90354 571.62686 339.93133 565.48131 351.75115 565.37222 z M 528.03435 568.7394 L 537.35076 571.91128 L 546.66717 575.08315 L 546.66717 598.87417 L 546.66717 622.66714 L 542.33318 622.5187 C 534.9338 622.26729 431.99692 609.77422 431.26092 609.03823 C 429.57961 607.35691 490.46675 581.42875 517.68474 572.2355 L 528.03435 568.7394 z M 759.33318 569.52065 L 772.66717 574.54018 C 785.26779 579.28326 785.97676 579.75141 785.57537 583.0812 C 785.29221 585.4302 786.22627 587.67937 788.37615 589.82925 C 791.18467 592.63761 793.30366 593.1746 804.79998 593.9855 C 817.63361 594.89076 818.37013 595.12294 831.33318 602.36831 C 846.39613 610.78727 862.66717 620.97731 862.66717 621.99136 C 862.66717 622.36284 862.51651 622.59262 862.33318 622.50112 C 862.14985 622.40961 839.09783 620.75831 811.10857 618.83315 C 783.1193 616.90816 759.85447 614.9686 759.40935 614.52261 C 758.96346 614.07664 758.76445 603.76848 758.96599 591.61636 L 759.33318 569.52065 z M 571.99529 587.99917 C 574.94007 587.99917 636.73843 627.44662 643.26678 633.49331 C 644.80177 634.91526 648.26127 635.22541 605.9992 630.15737 L 571.33318 625.99917 L 570.96404 606.99917 C 570.718 594.36266 571.06251 587.99917 571.99529 587.99917 z M 430.30193 592.1105 C 430.60938 592.07264 429.56797 593.67017 426.82928 597.12808 C 424.59536 599.94859 421.71186 603.09862 420.42107 604.12808 C 419.13027 605.15751 420.7001 602.84917 423.91131 598.99917 C 427.59435 594.58345 429.93088 592.15619 430.30193 592.1105 z M 851.53826 598.05581 C 854.71984 598.04904 867.58821 598.88072 882.66717 600.08706 C 899.90011 601.46573 915.3492 602.60993 916.9992 602.63003 L 919.9992 602.66714 L 919.9992 633.84487 L 919.9992 665.02261 L 916.33318 666.00112 C 911.134 667.38808 759.08263 668.45604 758.38982 667.1105 C 758.07505 666.49948 758.07116 658.65027 758.38201 649.66714 C 758.92416 634.00038 759.06488 633.33613 761.80779 633.41323 C 763.38055 633.45745 789.26712 635.76414 819.33318 638.53823 C 862.16442 642.49011 874.38274 643.23322 875.76873 641.97378 C 876.74165 641.0897 877.8731 637.8711 878.2824 634.81948 C 878.99886 629.47815 878.75282 629.0105 871.70818 622.3019 C 863.29524 614.29026 849.98555 598.89881 850.79021 598.11245 C 850.82759 598.07592 851.08375 598.05678 851.53826 598.05581 z M 649.02459 623.9855 C 659.05634 624.39185 739.36312 631.22329 740.9992 631.86831 C 741.18253 631.94059 741.33318 639.80002 741.33318 649.33315 L 741.33318 666.66714 L 655.9992 666.66714 L 570.66717 666.66714 L 570.66717 655.33315 C 570.66717 645.78054 571.0049 643.99917 572.82342 643.99917 C 574.01002 643.99917 591.78243 646.11768 612.3156 648.7062 C 632.84875 651.29474 650.79318 653.04879 652.19256 652.60464 C 653.59195 652.1605 655.68888 650.34663 656.85076 648.57339 C 658.78269 645.62489 658.77579 644.88084 656.77264 639.87417 C 655.56781 636.863 653.10013 632.22129 651.29021 629.55776 C 649.4805 626.89444 647.9992 624.38989 647.9992 623.99331 C 647.9992 623.95954 648.35579 623.95841 649.02459 623.9855 z "
       transform="translate(-42.924979,-28.124169)" />
    <g
       id="layer4"
       inkscape:label="01"
       style="display:inline;fill:#ffcc00">
      <path
         style="fill:#ffcc00;stroke-width:1.33333"
         d="m 1146.5106,735.33974 c 33.1874,-20.46137 62.6621,-48.80429 83.2013,-80.00639 6.5821,-9.99916 18.2881,-31.21583 18.2881,-33.14643 0,-0.29641 -6.45,1.52023 -14.3334,4.03701 -60.0855,19.18245 -124.5702,29.91757 -226.3333,37.67897 -19.06666,1.4542 -48.16666,3.72095 -64.66666,5.03723 -26.98688,2.15285 -49.38024,2.39322 -222.95818,2.39322 H 526.75029 l -8.06626,-7.98245 -8.06627,-7.98245 -38.97556,-0.93196 C 392.37904,652.54121 349.36595,647.11703 288.66666,631.36235 276.19999,628.12659 217.74181,610.43598 158.75958,592.04988 51.577649,558.63884 49.37102,558.05954 49.375231,563.33335 c 5.85e-4,0.73333 29.541396,11.74336 65.646249,24.46673 36.10485,12.72336 81.11463,28.62336 100.02173,35.33334 l 34.37654,12.19993 12.10275,16.66667 c 26.64531,36.69319 48.54671,60.5108 72.22285,78.54181 l 12.41087,9.45175 271.92188,0.33979 c 149.55703,0.18688 327.44946,0.48833 395.3165,0.66988 l 123.3947,0.33011 z"
         id="path3392"
         transform="translate(-42.924979,-28.124169)" />
      <path
         style="fill:#ffcc00;stroke-width:1.33333"
         d="m 874.74187,636.52613 c 1.61577,-4.40563 -1.4678,-9.04676 -6.775,-10.19715 -4.89665,-1.06141 -225.65887,-15.66708 -226.39854,-14.97858 -0.2374,0.22099 0.46647,2.13855 1.56415,4.26124 l 1.9958,3.85944 86.43585,7.73755 c 47.53972,4.25566 97.53585,8.81315 111.10251,10.12778 29.50403,2.85897 30.74099,2.82772 32.07523,-0.81028 z"
         id="path3410"
         transform="translate(-42.924979,-28.124169)" />
      <path
         style="fill:#ffcc00;stroke-width:1.33333"
         d="m 653.36609,647.29387 c 1.25383,-1.51077 1.32633,-2.84341 0.27967,-5.14057 -1.68664,-3.70177 12.79009,-1.67827 -135.36143,-18.92036 -83.08227,-9.66923 -112.10202,-12.61524 -113.22315,-11.49411 -1.05148,1.05148 -1.10287,2.41437 -0.16987,4.50529 1.29404,2.90007 5.15879,3.48354 118.55649,17.89863 64.47037,8.19546 119.69538,14.96603 122.72226,15.04572 3.46052,0.0911 6.13171,-0.61218 7.19603,-1.8946 z"
         id="path3406"
         transform="translate(-42.924979,-28.124169)" />
      <path
         style="fill:#ffcc00;stroke-width:1.33333"
         d="m 934.35796,634.4821 0.35799,-30.18458 -5.02465,-0.62954 c -2.76356,-0.34626 -5.47466,-0.37778 -6.02466,-0.07 -0.55,0.30772 -1,14.35857 -1,31.22412 v 30.66465 l 5.66667,-0.41 5.66667,-0.41 0.35798,-30.18458 z"
         id="path3404"
         transform="translate(-42.924979,-28.124169)" />
      <path
         style="fill:#ffcc00;stroke-width:1.33333"
         d="m 566.66665,654.84114 v -11.82555 l -5,-0.82644 c -2.75,-0.45454 -6.65,-0.83305 -8.66666,-0.84112 l -3.66667,-0.0147 V 654 666.66667 h 8.66667 8.66666 z"
         id="path3400"
         transform="translate(-42.924979,-28.124169)" />
      <path
         style="fill:#ffcc00;stroke-width:1.33333"
         d="m 753.99998,650.00002 v -17.33333 l -4.33333,-0.41782 -4.33334,-0.41781 v 18.16896 18.16896 l 4.33334,-0.41781 4.33333,-0.41782 z"
         id="path3394"
         transform="translate(-42.924979,-28.124169)" />
      <path
         style="fill:#ffcc00;stroke-width:1.33333"
         d="m 754.66665,591.30035 v -23.36633 l -3.42014,-1.30034 c -1.88106,-0.71518 -3.98106,-1.30033 -4.66666,-1.30033 -0.72824,0 -1.24654,10.25619 -1.24654,24.66667 v 24.66666 h 4.66667 4.66667 z"
         id="path3426"
         transform="translate(-42.924979,-28.124169)" />
      <path
         style="fill:#ffcc00;stroke-width:1.33333"
         d="m 1170.1038,615.35072 c 3.1107,-3.1107 3.1949,-3.54998 1.3606,-7.0971 -1.0754,-2.07964 -2.7448,-4.42266 -3.7098,-5.2067 -1.3063,-1.06125 -314.54194,-20.57785 -327.4682,-20.40337 -1.91414,0.0259 -0.88209,2.3422 3.53888,7.9428 l 2.56784,3.25299 157.80338,12.28112 c 86.7919,6.7546 158.8807,12.34076 160.1974,12.41366 1.3167,0.0729 3.8861,-1.35961 5.7099,-3.1834 z"
         id="path3424"
         transform="translate(-42.924979,-28.124169)" />
      <path
         style="fill:#ffcc00;stroke-width:1.33333"
         d="m 566.66665,604.94444 v -20.3889 l -7.36286,-3.6111 c -4.04959,-1.9861 -7.64959,-3.61109 -8,-3.61109 -0.35043,0 -0.63714,10.46379 -0.63714,23.25284 v 23.25285 l 5,0.52302 c 12.30208,1.28684 11,3.58531 11,-19.41762 z"
         id="path3416"
         transform="translate(-42.924979,-28.124169)" />
      <path
         style="fill:#ffcc00;stroke-width:1.33333"
         d="m 935.70326,565.00318 -0.36995,-18.99686 -5.33333,0.45956 c -2.93334,0.25276 -5.78334,0.73675 -6.33334,1.07554 -0.55,0.33878 -1,8.68057 -1,18.53729 v 17.92131 h 6.70328 6.70327 z"
         id="path3448"
         transform="translate(-42.924979,-28.124169)" />
      <path
         style="fill:#ffcc00;stroke-width:1.33333"
         d="m 799.33695,585.88952 c -8.91997,-4.37694 -11.22608,-4.33162 -9.4923,0.18651 1.07305,2.79632 5.80969,4.42416 12.822,4.40655 l 6,-0.0151 z"
         id="path3442"
         transform="translate(-42.924979,-28.124169)" />
      <path
         style="fill:#ffcc00;stroke-width:1.33333"
         d="m 937.33331,135.33334 v -18 h 32.53622 32.53627 l 1.4402,-4.13156 c 1.5898,-4.56032 0.3246,-8.33936 -3.2514,-9.71158 -1.18032,-0.45294 -8.84699,-0.82626 -17.03701,-0.82959 -8.19002,-0.003 -21.64095,-0.39501 -29.89095,-0.87039 l -15,-0.86432 -0.13186,-20.796283 c -0.0725,-11.437955 -0.52252,-24.096282 -1,-28.129615 -0.80514,-6.801106 -1.1401,-7.364518 -4.61543,-7.763011 -7.28933,-0.835818 -7.58604,0.308581 -7.58604,29.259604 V 100 l -30.33333,0.0419 -30.33334,0.0419 -2.47446,3.39601 c -2.22887,3.05895 -2.29176,3.87601 -0.63374,8.23232 l 1.84071,4.83632 30.30041,-0.39228 30.30042,-0.39226 v 18.78472 18.78472 h 6.66666 6.66667 z"
         id="path3508"
         transform="translate(-42.924979,-28.124169)" />
      <path
         style="fill:#ffcc00;stroke-width:1.33333"
         d="m 755.70427,141 0.37096,-18.33333 h 32.62904 c 30.77058,0 32.77982,-0.15077 35.27607,-2.64703 2.23277,-2.23278 2.40795,-3.17176 1.11932,-6 l -1.52772,-3.35297 H 791.11929 758.66665 V 72.697406 34.728142 l -3.20711,-2.101373 c -2.87639,-1.884687 -3.70133,-1.894872 -8,-0.09877 l -4.79289,2.002601 v 36.068036 36.068034 h -31.70332 c -34.20169,0 -37.68071,0.6549 -37.58761,7.07561 0.0915,6.30802 2.69857,7.59072 15.43792,7.5955 6.51916,0.002 21.30301,0.39638 32.85301,0.87541 l 21,0.87097 v 17.56903 c 0,9.66297 0.42822,17.99727 0.95162,18.52067 0.5234,0.52338 3.3734,0.77338 6.33334,0.55554 l 5.3817,-0.39606 z"
         id="path3506"
         transform="translate(-42.924979,-28.124169)" />
      <path
         style="fill:#ffcc00;stroke-width:1.33333"
         d="m 565.49999,205.33334 c 2.35006,0 2.5,-1.41215 2.5,-23.54635 v -23.54633 l 40.65038,0.82245 c 38.9622,0.78829 40.70643,0.71772 42,-1.69935 1.97901,-3.69782 1.64668,-9.67962 -0.72599,-13.06708 -2.06629,-2.95005 -2.25476,-2.96334 -42,-2.96334 h -39.92439 v -29.56168 c 0,-25.636357 -0.29302,-29.885454 -2.20666,-32.000003 -2.85488,-3.154616 -4.27922,-3.072996 -8.04074,0.460764 -3.04166,2.857491 -3.08594,3.313849 -3.08594,31.807199 v 28.9081 l -9,0.85 c -4.95,0.4675 -20.85,0.85426 -35.33333,0.85947 -24.5486,0.009 -26.51407,0.19021 -29,2.67615 -3.32848,3.32848 -3.33069,4.89457 -0.0147,10.33333 L 483.96073,160 h 34.68627 34.68627 v 22.44445 c 0,12.34445 0.44584,22.89028 0.99074,23.43518 0.54491,0.54491 2.71991,0.64491 4.83334,0.22223 2.11346,-0.42269 4.96764,-0.76852 6.34264,-0.76852 z"
         id="path3504"
         transform="translate(-42.924979,-28.124169)" />
      <path
         style="fill:#ffcc00;stroke-width:1.33333"
         d="m 936.47099,328.4655 c 0.47428,-5.61064 0.86232,-13.38244 0.86232,-17.27065 0,-7.03345 -0.0255,-7.07657 -5,-8.45807 -8.68084,-2.41078 -8.33333,-3.13069 -8.33333,17.26323 v 18.66667 h 5.80434 5.80436 z"
         id="path3502"
         transform="translate(-42.924979,-28.124169)" />
      <path
         style="fill:#ffcc00;stroke-width:1.33333"
         d="m 1050.7413,356.20769 c 4.1416,-3.35369 2.7826,-5.75404 -4.9105,-8.67287 -5.7367,-2.17654 -21.016,-3.06345 -130.49749,-7.57492 -68.2,-2.81036 -124.43034,-4.69068 -124.95633,-4.17849 -1.64217,1.59912 0.48997,6.88511 2.77851,6.88845 1.1978,10e-4 52.57782,3.26596 114.17782,7.25382 109.62539,7.0969 112.32109,7.20857 127.14359,5.26689 14.4951,-1.89879 23.9736,-1.86052 12.8564,0.0519 -2.9333,0.5046 -7.4333,1.41946 -10,2.03302 -4.3364,1.03662 -4.1345,1.12532 2.8523,1.25338 5.4735,0.10026 8.3451,-0.53115 10.5557,-2.32119 z"
         id="path3494"
         transform="translate(-42.924979,-28.124169)" />
      <path
         style="fill:#ffcc00;stroke-width:1.33333"
         d="m 755.23739,350.97394 c 0.5031,-6.43101 0.57018,-12.58101 0.14907,-13.66666 -0.42111,-1.08567 -3.15533,-3.34186 -6.07605,-5.01375 l -5.31043,-3.03981 v 16.70648 16.70648 h 5.16136 5.16135 z"
         id="path3490"
         transform="translate(-42.924979,-28.124169)" />
      <path
         style="fill:#ffcc00;stroke-width:1.33333"
         d="m 931.83331,364.50001 c 3.80645,-0.76129 4.16667,-1.28 4.16667,-6 v -5.16667 h -6 -6 v 6 c 0,6.43227 0.35025,6.66328 7.83333,5.16667 z"
         id="path3484"
         transform="translate(-42.924979,-28.124169)" />
      <path
         style="fill:#ffcc00;stroke-width:1.33333"
         d="m 567.99999,362.05166 v -11.28168 l -6.90867,-2.05165 c -3.79977,-1.12841 -7.42228,-2.05165 -8.05004,-2.05165 -0.62775,0 -0.96885,5.55 -0.758,12.33333 l 0.38337,12.33333 6,0.79975 c 3.3,0.43985 6.75,0.88985 7.66667,1 1.2178,0.14632 1.66667,-2.83817 1.66667,-11.08143 z"
         id="path3478"
         transform="translate(-42.924979,-28.124169)" />
      <path
         style="fill:#ffcc00;stroke-width:1.33333"
         d="m 797.99998,373.47724 c 0,-1.02086 -1.5,-2.9231 -3.33333,-4.22719 -2.89855,-2.06183 -13.74647,-3.00077 -83.16748,-7.19864 -43.90877,-2.65516 -80.17544,-4.48625 -80.59259,-4.06911 -0.41714,0.41715 0.5619,2.07879 2.17564,3.69255 2.81011,2.81009 6.15972,3.16869 79.25927,8.48528 41.97884,3.05316 78.42516,5.46615 80.99182,5.3622 3.00796,-0.12187 4.66667,-0.84872 4.66667,-2.04509 z"
         id="path3476"
         transform="translate(-42.924979,-28.124169)" />
      <path
         style="fill:#ffcc00;stroke-width:1.33333"
         d="m 754.66665,378.00001 c 0,-3 -0.53334,-3.33333 -5.33334,-3.33333 -4.8,0 -5.33333,0.33333 -5.33333,3.33333 0,3 0.53333,3.33333 5.33333,3.33333 4.8,0 5.33334,-0.33333 5.33334,-3.33333 z"
         id="path3470"
         transform="translate(-42.924979,-28.124169)" />
      <path
         style="fill:#ffcc00;stroke-width:1.33333"
         d="m 650.39998,390.40001 c 2.81576,-2.81576 1.72918,-4.74565 -3.19168,-5.66881 -2.63541,-0.49442 -37.26964,-4.72942 -76.96493,-9.41112 -73.10081,-8.6216 -74.15774,-8.67558 -74.22297,-3.79112 -0.0232,1.736 -1.04923,1.58286 82.64625,12.33522 67.02537,8.61076 69.43853,8.83063 71.73333,6.53583 z"
         id="path3462"
         transform="translate(-42.924979,-28.124169)" />
      <path
         style="fill:#ffcc00;stroke-width:1.33333"
         d="m 564.83332,406.66668 c 3.08108,0 3.16667,-0.30157 3.16667,-11.15888 v -11.15888 l -5,-0.82644 c -11.37908,-1.88086 -11,-2.25724 -11,10.92197 0,6.47779 0.44584,12.22362 0.99074,12.76852 0.54491,0.54491 2.71991,0.64491 4.83334,0.22223 2.11341,-0.42269 5.26758,-0.76852 7.00925,-0.76852 z"
         id="path3458"
         transform="translate(-42.924979,-28.124169)" />
    </g>
    <g
       id="layer2"
       inkscape:label="02"
       transform="translate(-42.924979,-28.124169)"
       style="display:inline;fill:#f2f2f2">
      <path
         style="fill:#f2f2f2;stroke-width:1.33333"
         d="m 1044.7594,335.00001 c -2.46,-5.68333 -6.9959,-15.73333 -10.0797,-22.33333 -21.4472,-45.9009 -27.6872,-77.42603 -20.1896,-102.00001 5.6303,-18.45361 16.0238,-33.62946 32.7941,-47.88363 5.5328,-4.70266 9.8489,-8.76102 9.5914,-9.01857 -0.2576,-0.25755 -41.21,0.73631 -91.00531,2.20856 -49.79534,1.47225 -93.41897,2.6806 -96.94139,2.68523 l -6.40442,0.008 -18.3716,18.33333 c -14.33675,14.3069 -20.73451,21.91702 -29.13051,34.65071 -25.61142,38.84324 -37.43066,87.41274 -28.22375,115.98148 l 1.38541,4.29886 10.24131,-7.08846 c 30.16895,-20.88084 59.27077,-30.3283 94.2413,-30.59358 14.61534,-0.11094 19.8347,0.4548 33.28507,3.60746 26.4702,6.20439 41.7374,12.06346 110.04829,42.23302 6.2333,2.75296 11.7605,5.05912 12.2827,5.12482 0.5222,0.0657 -1.0633,-4.53056 -3.5233,-10.21389 z"
         id="path3496" />
      <path
         style="fill:#f2f2f2;stroke-width:1.33333"
         d="m 790.99131,351.66668 c -17.51742,-46.58472 -16.22858,-85.82219 4.2592,-129.66667 6.60904,-14.14356 17.90118,-32.96206 29.04843,-48.40964 4.39608,-6.09198 7.7772,-11.23051 7.51362,-11.41898 -0.26358,-0.18845 -28.07925,0.004 -61.81258,0.42791 l -61.33333,0.77056 -11.59188,4.13045 c -17.85627,6.3626 -39.78735,21.32919 -47.85341,32.65694 l -2.86968,4.03009 21.15748,-0.93199 21.15749,-0.93197 -14.66667,10.3066 c -20.65954,14.51792 -31.70756,23.53903 -44.01554,35.94024 -18.66779,18.80919 -26.38444,33.61291 -26.46104,50.76312 -0.0377,8.44736 3.10597,22.12807 5.75597,25.04883 0.52339,0.57685 10.19963,-1.31619 21.50277,-4.20677 52.24596,-13.36102 77.47836,-12.93434 107.21784,1.81301 12.45528,6.17639 34.15213,21.78319 48,34.52696 4.4,4.04919 8.36655,7.38972 8.81455,7.4234 0.44798,0.0337 -1.27246,-5.48876 -3.82322,-12.27209 z"
         id="path3486" />
      <path
         style="fill:#f2f2f2;stroke-width:1.33333"
         d="m 633.6679,367.66668 c -25.64961,-31.63907 -34.59674,-50.87378 -33.38676,-71.77551 0.52104,-9.00067 1.41579,-12.15924 6.10516,-21.55206 8.6067,-17.23917 25.91254,-35.21486 53.92482,-56.012 l 14.80784,-10.99377 -7.22616,-0.36579 c -3.97438,-0.20117 -38.11584,0.46514 -75.86992,1.48068 l -68.64379,1.84647 -11.90969,12.51932 c -35.17908,36.97977 -46.41453,65.54643 -38.74833,98.51932 1.9998,8.60124 14.26332,35.16012 18.97474,41.09324 l 2.45631,3.09326 4.07232,-6.551 c 14.17464,-22.8022 41.30475,-23.66156 92.85657,-2.9413 11.13877,4.47702 26.25231,11.04959 33.58564,14.60571 7.33333,3.55611 14.12188,6.51841 15.08565,6.58288 0.96378,0.0645 -1.77421,-4.23279 -6.0844,-9.54945 z"
         id="path3474" />
      <path
         style="fill:#f2f2f2;stroke-width:1.33333"
         d="m 227.57619,529.33335 c 22.6255,-19.86922 60.83916,-58.69496 97.11121,-98.66667 60.5298,-66.70368 91.51126,-98.09448 120.22367,-121.81208 4.53441,-3.74563 8.03232,-7.02231 7.77309,-7.28152 -0.25921,-0.25922 -14.46918,8.19958 -31.57773,18.79733 -17.10855,10.59773 -61.40644,37.72831 -98.43977,60.29015 -37.03333,22.56184 -80.83333,49.4426 -97.33333,59.73503 -35.80959,22.33742 -104.50357,67.5453 -103.76233,68.28654 0.28856,0.28856 5.73573,-1.54429 12.10481,-4.07301 18.63848,-7.40003 35.90623,-11.43419 52.38465,-12.23832 23.26601,-1.13535 34.42692,3.37936 38.02256,15.38053 2.06556,6.89425 -0.68887,16.11018 -8.17373,27.34811 -2.84487,4.27135 -4.62899,7.57135 -3.9647,7.33334 0.66428,-0.23803 7.69851,-6.13276 15.6316,-13.09943 z"
         id="path3454" />
      <path
         style="fill:#f2f2f2;stroke-width:1.33333"
         d="m 324.3348,519.99471 c 31.04098,-59.31602 45.49914,-82.36444 72.88411,-116.18798 19.06871,-23.552 19.5928,-24.48335 8.08923,-14.37539 -51.75895,45.47955 -79.76319,69.12879 -119.30815,100.7543 -14.66666,11.72945 -35.53245,28.11892 -46.3684,36.42106 -10.83596,8.30213 -20.02562,15.61884 -20.42146,16.25933 -0.39586,0.64051 2.16992,0.03 5.70173,-1.35668 8.99429,-3.53139 27.45672,-7.87177 37.87277,-8.90363 24.10592,-2.38802 39.55204,10.02702 36.50532,29.34163 -0.78412,4.97088 -0.69861,5.18007 1.1094,2.71403 1.07746,-1.46959 11.8484,-21.56959 23.93545,-44.66667 z"
         id="path3452" />
      <path
         style="fill:#f2f2f2;stroke-width:1.33333"
         d="m 1130.4351,565.66668 c -47.0366,-46.39302 -68.4401,-72.38843 -82.0698,-99.67725 -16.7087,-33.45348 -17.0117,-64.50866 -0.896,-91.83102 2.5439,-4.31289 4.4224,-8.04449 4.1744,-8.29247 -0.248,-0.24798 -16.0193,-0.8414 -35.0473,-1.3187 l -34.59643,-0.86783 -43.99999,5.56664 c -24.2,3.06167 -46.7,6.15015 -50,6.86332 -15.69526,3.39191 -42.2377,11.10412 -44.24838,12.85687 -3.99252,3.48037 -22.14901,41.28035 -26.91694,56.03836 -7.32968,22.68727 -9.2454,35.41741 -8.47676,56.32875 0.5238,14.25023 1.3996,20.47217 4.20412,29.86719 3.64239,12.2018 11.90235,31.46614 13.49172,31.46614 0.49167,0 5.7807,-1.48372 11.75342,-3.29717 33.87744,-10.28589 64.87856,-15.2944 100.85948,-16.29472 39.24271,-1.091 68.34346,2.24167 107.73796,12.33833 20.9858,5.37859 59.8913,18.32247 89.5954,29.80847 11.3666,4.39527 21.0759,8.01848 21.5761,8.05157 0.5003,0.0331 -11.7132,-12.38981 -27.141,-27.60648 z"
         id="path3440" />
      <path
         style="fill:#f2f2f2;stroke-width:1.33333"
         d="m 392.15594,566.44868 c -1.85826,-46.906 0.52462,-91.13385 6.29334,-116.80857 1.32148,-5.88146 0.86702,-6.92971 -1.63564,-3.77276 -7.32522,9.24033 -47.8106,63.14312 -55.67965,74.13267 -24.10294,33.66102 -52.58925,76.80797 -48.32461,73.19516 23.17644,-19.63407 33.81566,-26.19843 48.5999,-29.98598 22.65227,-5.80324 41.29947,6.97563 49.32083,33.79942 0.93343,3.12138 1.94909,5.42329 2.25707,5.11533 0.30796,-0.30796 -0.0661,-16.36183 -0.83124,-35.67527 z"
         id="path3436" />
      <path
         style="fill:#f2f2f2;stroke-width:1.33333"
         d="m 440.81555,599.87226 c 22.00748,-10.40892 46.62705,-20.71462 65.02692,-27.2201 17.06821,-6.03466 16.42786,-7.0502 -5.17582,-8.20846 -15.98956,-0.85727 -28.54432,1.44694 -42.21381,7.74762 -8.1444,3.754 -10.61431,5.85026 -20.08268,17.04456 -5.93789,7.02028 -12.0049,14.11414 -13.48225,15.76414 -1.47735,1.65 -2.36449,3 -1.97144,3 0.39305,0 8.44764,-3.6575 17.89908,-8.12776 z"
         id="path3432" />
      <path
         style="fill:#f2f2f2;stroke-width:1.33333"
         d="m 854.1997,609.00002 c -34.64169,-43.19358 -47.24775,-69.76995 -49.63036,-104.63191 -2.17428,-31.8138 10.89501,-76.05934 33.34878,-112.90085 2.63678,-4.32634 4.54026,-8.11996 4.22998,-8.43025 -0.3103,-0.31029 -40.97056,0.40411 -90.35615,1.58756 -88.69451,2.12543 -95.02601,2.56252 -99.43221,6.86413 -0.90213,0.88074 -3.90213,2.00204 -6.66666,2.49182 -2.76454,0.48976 -10.42643,3.49183 -17.02643,6.67123 l -12,5.78076 28.34939,0.11706 28.34937,0.11707 -8.13744,10.24011 c -21.90217,27.56157 -34.86932,51.98157 -41.79528,78.70973 -2.98643,11.52501 -4.904,32.43282 -3.93289,42.88154 l 0.83358,8.96898 15.92694,-0.56785 c 66.6153,-2.37509 141.37305,18.65991 207.07299,58.26527 7.33333,4.42069 13.56023,8.06716 13.83755,8.10326 0.27732,0.0361 -1.05971,-1.88437 -2.97116,-4.2677 z"
         id="path3430" />
      <path
         style="fill:#f2f2f2;stroke-width:1.33333"
         d="m 643.21705,622.64871 c -11.7676,-20.07835 -21.77251,-47.11836 -25.15361,-67.98203 -7.22867,-44.60563 4.95724,-87.16203 37.46704,-130.84477 5.49194,-7.37943 9.79429,-13.5658 9.56077,-13.7475 -0.23353,-0.18169 -36.21887,-0.0456 -79.96743,0.30248 l -79.54282,0.63283 -15.12384,13.73408 c -27.05413,24.56807 -47.9308,50.80009 -60.42298,75.92288 -12.84,25.82228 -17.96052,50.36376 -18.00816,86.30896 l -0.026,19.64231 14.33333,-14.46401 c 22.92804,-23.13708 40.73248,-31.05802 69.66667,-30.99368 34.71464,0.0772 66.68308,13.69262 126.66666,53.94762 13.56667,9.10459 24.84173,16.40486 25.05572,16.22282 0.21397,-0.18205 -1.81341,-4.08895 -4.50533,-8.68199 z"
         id="path3414" />
    </g>
  </g>
</svg>
